# xmcd
#
# Track frame offsets: 
#        150
#        14975
#        29497
#        48018
#        66537
#        84766
#        99012
#        111566
#        131258
#        149418
#        165013
#
# Disc length: 2372 seconds
#
# Revision: 0
# Processed by: cddbd v1.5.2PL0 Copyright (c) Steve Scherf et al.
# Submitted via: ExactAudioCopy v0.99pb5
#
DISCID=8a09420b
DTITLE=Ray and the Detonators - Ray and the Detonators
DYEAR=1900
DGENRE=
TTITLE0=Baby Can You Read My Lips
TTITLE1=Baby C'est Moi
TTITLE2=Heartbreak (It's Hurtin' Me)
TTITLE3=Walk Stumble Crawl
TTITLE4=Sanity Must Die
TTITLE5=Rock Until They Roll Me Away
TTITLE6=Take The Money And Run
TTITLE7=I Want A Little Girl
TTITLE8=Mumbo Jumbo
TTITLE9=She Can Sing
TTITLE10=Big V8
EXTD=
EXTT0=
EXTT1=
EXTT2=
EXTT3=
EXTT4=
EXTT5=
EXTT6=
EXTT7=
EXTT8=
EXTT9=
EXTT10=
PLAYORDER=
